<svg width="109" height="28" viewBox="0 0 109 28" fill="none" xmlns="http://www.w3.org/2000/svg">
<path d="M8.50854 4.01971C8.43279 3.34736 8.12029 2.82653 7.57104 2.45721C7.0218 2.08316 6.33052 1.89613 5.49718 1.89613C4.90059 1.89613 4.38449 1.99083 3.94889 2.18022C3.51328 2.36488 3.17474 2.62056 2.93326 2.94727C2.69652 3.26923 2.57815 3.63619 2.57815 4.04812C2.57815 4.39376 2.65864 4.69206 2.81962 4.943C2.98534 5.19395 3.20078 5.40465 3.46593 5.57511C3.73582 5.74083 4.02464 5.8805 4.33241 5.99414C4.64017 6.10304 4.9361 6.193 5.22019 6.26403L6.64065 6.63335C7.10466 6.74698 7.58051 6.90086 8.0682 7.09499C8.55589 7.28912 9.00807 7.5448 9.42474 7.86204C9.84141 8.17927 10.1776 8.57227 10.4333 9.04102C10.6937 9.50977 10.8239 10.0708 10.8239 10.7243C10.8239 11.5481 10.6108 12.2797 10.1847 12.9189C9.76328 13.5581 9.15012 14.0623 8.34519 14.4316C7.545 14.801 6.57673 14.9856 5.44036 14.9856C4.35135 14.9856 3.40911 14.8128 2.61366 14.4672C1.8182 14.1215 1.19557 13.6315 0.745761 12.997C0.29595 12.3578 0.0473707 11.6002 2.22623e-05 10.7243H2.20173C2.24434 11.2498 2.4148 11.6878 2.71309 12.0382C3.01612 12.3838 3.40201 12.6419 3.87076 12.8123C4.34425 12.978 4.86271 13.0609 5.42616 13.0609C6.04642 13.0609 6.59803 12.9638 7.08099 12.7697C7.56868 12.5708 7.9522 12.2962 8.23156 11.9458C8.51091 11.5907 8.65059 11.1764 8.65059 10.7029C8.65059 10.2721 8.52748 9.91933 8.28127 9.64471C8.0398 9.37009 7.71072 9.14281 7.29406 8.96289C6.88212 8.78297 6.41574 8.62435 5.89491 8.48704L4.17616 8.01829C3.01139 7.70105 2.08809 7.23467 1.40627 6.61914C0.729189 6.00361 0.390647 5.18922 0.390647 4.17596C0.390647 3.33789 0.61792 2.60636 1.07247 1.98136C1.52701 1.35636 2.14254 0.871034 2.91906 0.525391C3.69557 0.175011 4.57152 -0.000178099 5.5469 -0.000178099C6.53175 -0.000178099 7.40059 0.172644 8.15343 0.518288C8.91101 0.863932 9.5076 1.33978 9.9432 1.94584C10.3788 2.54717 10.6061 3.23846 10.625 4.01971H8.50854ZM18.3683 3.83505V5.5396H12.4095V3.83505H18.3683ZM14.0075 1.22141H16.1311V11.541C16.1311 11.9529 16.1926 12.2631 16.3157 12.4714C16.4388 12.675 16.5974 12.8147 16.7916 12.8904C16.9904 12.9615 17.2059 12.997 17.4379 12.997C17.6083 12.997 17.7575 12.9851 17.8853 12.9615C18.0132 12.9378 18.1126 12.9189 18.1836 12.9047L18.5671 14.6589C18.444 14.7063 18.2688 14.7536 18.0416 14.801C17.8143 14.853 17.5302 14.8815 17.1893 14.8862C16.6306 14.8957 16.1098 14.7962 15.6268 14.5879C15.1438 14.3796 14.7532 14.0576 14.4549 13.622C14.1566 13.1864 14.0075 12.6395 14.0075 11.9814V1.22141ZM25.1953 14.9643C24.1726 14.9643 23.2801 14.7299 22.5178 14.2612C21.7555 13.7924 21.1636 13.1367 20.7422 12.2939C20.3208 11.4511 20.1101 10.4662 20.1101 9.33931C20.1101 8.20768 20.3208 7.2181 20.7422 6.37056C21.1636 5.52302 21.7555 4.86488 22.5178 4.39613C23.2801 3.92738 24.1726 3.693 25.1953 3.693C26.2181 3.693 27.1106 3.92738 27.8729 4.39613C28.6352 4.86488 29.2271 5.52302 29.6485 6.37056C30.0699 7.2181 30.2806 8.20768 30.2806 9.33931C30.2806 10.4662 30.0699 11.4511 29.6485 12.2939C29.2271 13.1367 28.6352 13.7924 27.8729 14.2612C27.1106 14.7299 26.2181 14.9643 25.1953 14.9643ZM25.2024 13.1816C25.8653 13.1816 26.4146 13.0065 26.8502 12.6561C27.2858 12.3057 27.6077 11.8393 27.8161 11.2569C28.0291 10.6745 28.1357 10.033 28.1357 9.33221C28.1357 8.63619 28.0291 7.99698 27.8161 7.4146C27.6077 6.82747 27.2858 6.35636 26.8502 6.00124C26.4146 5.64613 25.8653 5.46857 25.2024 5.46857C24.5348 5.46857 23.9808 5.64613 23.5405 6.00124C23.1049 6.35636 22.7806 6.82747 22.5675 7.4146C22.3592 7.99698 22.255 8.63619 22.255 9.33221C22.255 10.033 22.3592 10.6745 22.5675 11.2569C22.7806 11.8393 23.1049 12.3057 23.5405 12.6561C23.9808 13.0065 24.5348 13.1816 25.2024 13.1816ZM37.2461 14.9643C36.1902 14.9643 35.2812 14.7252 34.5188 14.247C33.7613 13.764 33.1789 13.0988 32.7717 12.2512C32.3645 11.4037 32.1609 10.4331 32.1609 9.33931C32.1609 8.23136 32.3692 7.25361 32.7859 6.40607C33.2026 5.5538 33.7897 4.88855 34.5473 4.41033C35.3048 3.93211 36.1973 3.693 37.2248 3.693C38.0534 3.693 38.792 3.84689 39.4407 4.15465C40.0894 4.45768 40.6126 4.88382 41.0103 5.43306C41.4128 5.9823 41.6519 6.62388 41.7276 7.35778H39.6609C39.5473 6.84641 39.2868 6.40607 38.8796 6.03675C38.4772 5.66744 37.9374 5.48278 37.2603 5.48278C36.6685 5.48278 36.15 5.63903 35.7049 5.95153C35.2646 6.25929 34.9213 6.69963 34.6751 7.27255C34.4289 7.84073 34.3058 8.51308 34.3058 9.2896C34.3058 10.085 34.4265 10.7716 34.668 11.3493C34.9095 11.9269 35.2504 12.3743 35.6907 12.6916C36.1358 13.0088 36.659 13.1674 37.2603 13.1674C37.6628 13.1674 38.0274 13.094 38.3541 12.9473C38.6855 12.7958 38.9625 12.5803 39.185 12.301C39.4123 12.0216 39.5709 11.6854 39.6609 11.2924H41.7276C41.6519 11.9979 41.4223 12.6277 41.0387 13.1816C40.6552 13.7356 40.1415 14.1712 39.4975 14.4885C38.8583 14.8057 38.1079 14.9643 37.2461 14.9643ZM45.9517 11.0439L45.9375 8.45153H46.3068L50.6534 3.83505H53.196L48.2387 9.09073H47.9049L45.9517 11.0439ZM43.9986 14.7441V0.198686H46.1222V14.7441H43.9986ZM50.8878 14.7441L46.9816 9.55948L48.4446 8.07511L53.4943 14.7441H50.8878ZM63.2351 4.01971C63.1593 3.34736 62.8468 2.82653 62.2976 2.45721C61.7484 2.08316 61.0571 1.89613 60.2237 1.89613C59.6272 1.89613 59.1111 1.99083 58.6754 2.18022C58.2398 2.36488 57.9013 2.62056 57.6598 2.94727C57.4231 3.26923 57.3047 3.63619 57.3047 4.04812C57.3047 4.39376 57.3852 4.69206 57.5462 4.943C57.7119 5.19395 57.9273 5.40465 58.1925 5.57511C58.4624 5.74083 58.7512 5.8805 59.059 5.99414C59.3667 6.10304 59.6627 6.193 59.9468 6.26403L61.3672 6.63335C61.8312 6.74698 62.3071 6.90086 62.7948 7.09499C63.2825 7.28912 63.7346 7.5448 64.1513 7.86204C64.568 8.17927 64.9041 8.57227 65.1598 9.04102C65.4202 9.50977 65.5504 10.0708 65.5504 10.7243C65.5504 11.5481 65.3374 12.2797 64.9112 12.9189C64.4898 13.5581 63.8767 14.0623 63.0718 14.4316C62.2716 14.801 61.3033 14.9856 60.1669 14.9856C59.0779 14.9856 58.1357 14.8128 57.3402 14.4672C56.5448 14.1215 55.9221 13.6315 55.4723 12.997C55.0225 12.3578 54.7739 11.6002 54.7266 10.7243H56.9283C56.9709 11.2498 57.1414 11.6878 57.4397 12.0382C57.7427 12.3838 58.1286 12.6419 58.5973 12.8123C59.0708 12.978 59.5893 13.0609 60.1527 13.0609C60.773 13.0609 61.3246 12.9638 61.8076 12.7697C62.2952 12.5708 62.6788 12.2962 62.9581 11.9458C63.2375 11.5907 63.3772 11.1764 63.3772 10.7029C63.3772 10.2721 63.254 9.91933 63.0078 9.64471C62.7664 9.37009 62.4373 9.14281 62.0206 8.96289C61.6087 8.78297 61.1423 8.62435 60.6215 8.48704L58.9027 8.01829C57.7379 7.70105 56.8147 7.23467 56.1328 6.61914C55.4558 6.00361 55.1172 5.18922 55.1172 4.17596C55.1172 3.33789 55.3445 2.60636 55.799 1.98136C56.2536 1.35636 56.8691 0.871034 57.6456 0.525391C58.4221 0.175011 59.2981 -0.000178099 60.2735 -0.000178099C61.2583 -0.000178099 62.1272 0.172644 62.88 0.518288C63.6376 0.863932 64.2342 1.33978 64.6698 1.94584C65.1054 2.54717 65.3326 3.23846 65.3516 4.01971H63.2351ZM72.5977 14.9643C71.5418 14.9643 70.6327 14.7252 69.8704 14.247C69.1128 13.764 68.5304 13.0988 68.1232 12.2512C67.716 11.4037 67.5125 10.4331 67.5125 9.33931C67.5125 8.23136 67.7208 7.25361 68.1375 6.40607C68.5541 5.5538 69.1412 4.88855 69.8988 4.41033C70.6564 3.93211 71.5489 3.693 72.5764 3.693C73.405 3.693 74.1436 3.84689 74.7923 4.15465C75.441 4.45768 75.9642 4.88382 76.3619 5.43306C76.7643 5.9823 77.0035 6.62388 77.0792 7.35778H75.0125C74.8988 6.84641 74.6384 6.40607 74.2312 6.03675C73.8287 5.66744 73.289 5.48278 72.6119 5.48278C72.02 5.48278 71.5016 5.63903 71.0565 5.95153C70.6161 6.25929 70.2729 6.69963 70.0267 7.27255C69.7804 7.84073 69.6573 8.51308 69.6573 9.2896C69.6573 10.085 69.7781 10.7716 70.0196 11.3493C70.261 11.9269 70.6019 12.3743 71.0423 12.6916C71.4874 13.0088 72.0106 13.1674 72.6119 13.1674C73.0143 13.1674 73.3789 13.094 73.7056 12.9473C74.0371 12.7958 74.3141 12.5803 74.5366 12.301C74.7639 12.0216 74.9225 11.6854 75.0125 11.2924H77.0792C77.0035 11.9979 76.7738 12.6277 76.3903 13.1816C76.0068 13.7356 75.493 14.1712 74.8491 14.4885C74.2099 14.8057 73.4594 14.9643 72.5977 14.9643ZM83.9453 14.9643C82.9226 14.9643 82.0301 14.7299 81.2678 14.2612C80.5055 13.7924 79.9136 13.1367 79.4922 12.2939C79.0708 11.4511 78.8601 10.4662 78.8601 9.33931C78.8601 8.20768 79.0708 7.2181 79.4922 6.37056C79.9136 5.52302 80.5055 4.86488 81.2678 4.39613C82.0301 3.92738 82.9226 3.693 83.9453 3.693C84.9681 3.693 85.8606 3.92738 86.6229 4.39613C87.3852 4.86488 87.9771 5.52302 88.3985 6.37056C88.8199 7.2181 89.0306 8.20768 89.0306 9.33931C89.0306 10.4662 88.8199 11.4511 88.3985 12.2939C87.9771 13.1367 87.3852 13.7924 86.6229 14.2612C85.8606 14.7299 84.9681 14.9643 83.9453 14.9643ZM83.9524 13.1816C84.6153 13.1816 85.1646 13.0065 85.6002 12.6561C86.0358 12.3057 86.3577 11.8393 86.5661 11.2569C86.7791 10.6745 86.8857 10.033 86.8857 9.33221C86.8857 8.63619 86.7791 7.99698 86.5661 7.4146C86.3577 6.82747 86.0358 6.35636 85.6002 6.00124C85.1646 5.64613 84.6153 5.46857 83.9524 5.46857C83.2848 5.46857 82.7308 5.64613 82.2905 6.00124C81.8549 6.35636 81.5306 6.82747 81.3175 7.4146C81.1092 7.99698 81.005 8.63619 81.005 9.33221C81.005 10.033 81.1092 10.6745 81.3175 11.2569C81.5306 11.8393 81.8549 12.3057 82.2905 12.6561C82.7308 13.0065 83.2848 13.1816 83.9524 13.1816ZM98.3115 10.22V3.83505H100.442V14.7441H98.3541V12.8549H98.2404C97.9895 13.4373 97.587 13.9226 97.033 14.3109C96.4838 14.6944 95.7996 14.8862 94.9805 14.8862C94.2797 14.8862 93.6595 14.7323 93.1197 14.4245C92.5847 14.112 92.1633 13.6504 91.8555 13.0396C91.5525 12.4288 91.4009 11.6736 91.4009 10.774V3.83505H93.5245V10.5183C93.5245 11.2617 93.7305 11.8535 94.1424 12.2939C94.5544 12.7342 95.0894 12.9544 95.7475 12.9544C96.1453 12.9544 96.5406 12.8549 96.9336 12.6561C97.3313 12.4572 97.6604 12.1565 97.9208 11.7541C98.186 11.3516 98.3162 10.8403 98.3115 10.22ZM108.388 3.83505V5.5396H102.429V3.83505H108.388ZM104.027 1.22141H106.151V11.541C106.151 11.9529 106.212 12.2631 106.335 12.4714C106.458 12.675 106.617 12.8147 106.811 12.8904C107.01 12.9615 107.225 12.997 107.457 12.997C107.628 12.997 107.777 12.9851 107.905 12.9615C108.033 12.9378 108.132 12.9189 108.203 12.9047L108.587 14.6589C108.464 14.7063 108.288 14.7536 108.061 14.801C107.834 14.853 107.55 14.8815 107.209 14.8862C106.65 14.8957 106.129 14.7962 105.646 14.5879C105.163 14.3796 104.773 14.0576 104.474 13.622C104.176 13.1864 104.027 12.6395 104.027 11.9814V1.22141Z" fill="#E3EAF0"/>
<path d="M31.7811 17.5623V27.7441H30.5481V17.5623H31.7811ZM35.2674 23.1504V27.7441H34.0941V20.1078H35.2277V21.301H35.3271C35.5061 20.9132 35.7778 20.6016 36.1424 20.3663C36.507 20.1277 36.9777 20.0083 37.5544 20.0083C38.0714 20.0083 38.5238 20.1144 38.9116 20.3265C39.2994 20.5353 39.601 20.8535 39.8164 21.2811C40.0319 21.7053 40.1396 22.2422 40.1396 22.8919V27.7441H38.9663V22.9714C38.9663 22.3715 38.8105 21.9042 38.499 21.5694C38.1874 21.2314 37.7598 21.0623 37.2163 21.0623C36.8418 21.0623 36.507 21.1435 36.212 21.3059C35.9204 21.4683 35.69 21.7053 35.521 22.0169C35.3519 22.3284 35.2674 22.7063 35.2674 23.1504ZM45.6046 20.1078V21.1021H41.6472V20.1078H45.6046ZM42.8006 18.2782H43.9739V25.5566C43.9739 25.8881 44.022 26.1367 44.1181 26.3024C44.2175 26.4648 44.3435 26.5742 44.4959 26.6305C44.6517 26.6835 44.8158 26.71 44.9881 26.71C45.1174 26.71 45.2234 26.7034 45.3063 26.6902C45.3892 26.6736 45.4555 26.6603 45.5052 26.6504L45.7438 27.7044C45.6643 27.7342 45.5532 27.764 45.4107 27.7939C45.2682 27.827 45.0876 27.8436 44.8688 27.8436C44.5374 27.8436 44.2126 27.7723 43.8944 27.6298C43.5795 27.4873 43.3177 27.2702 43.1089 26.9785C42.9034 26.6868 42.8006 26.319 42.8006 25.8748V18.2782ZM50.4892 27.9032C49.7534 27.9032 49.1187 27.7408 48.5851 27.416C48.0548 27.0879 47.6454 26.6305 47.3571 26.0439C47.0721 25.4539 46.9295 24.7678 46.9295 23.9856C46.9295 23.2034 47.0721 22.514 47.3571 21.9174C47.6454 21.3175 48.0465 20.8502 48.5602 20.5154C49.0773 20.1774 49.6805 20.0083 50.3699 20.0083C50.7676 20.0083 51.1604 20.0746 51.5481 20.2072C51.9359 20.3398 52.2889 20.5552 52.6071 20.8535C52.9253 21.1485 53.1788 21.5396 53.3677 22.0268C53.5567 22.514 53.6511 23.1139 53.6511 23.8265V24.3237H47.7648V23.3095H52.4579C52.4579 22.8786 52.3718 22.4941 52.1994 22.1561C52.0304 21.818 51.7884 21.5512 51.4736 21.3556C51.162 21.1601 50.7941 21.0623 50.3699 21.0623C49.9025 21.0623 49.4982 21.1783 49.1568 21.4103C48.8187 21.639 48.5586 21.9373 48.3763 22.3052C48.194 22.6731 48.1028 23.0675 48.1028 23.4885V24.1646C48.1028 24.7413 48.2023 25.2302 48.4011 25.6312C48.6033 26.0289 48.8834 26.3322 49.2413 26.541C49.5993 26.7465 50.0152 26.8493 50.4892 26.8493C50.7974 26.8493 51.0758 26.8062 51.3244 26.72C51.5763 26.6305 51.7934 26.4979 51.9757 26.3223C52.158 26.1433 52.2989 25.9212 52.3983 25.6561L53.5318 25.9743C53.4125 26.3587 53.212 26.6968 52.9302 26.9885C52.6485 27.2768 52.3005 27.5022 51.8862 27.6646C51.4719 27.8237 51.0062 27.9032 50.4892 27.9032ZM55.4359 27.7441V20.1078H56.5694V21.2612H56.649C56.7882 20.8833 57.0401 20.5768 57.4047 20.3414C57.7693 20.1061 58.1802 19.9885 58.6376 19.9885C58.7238 19.9885 58.8315 19.9901 58.9608 19.9934C59.09 19.9967 59.1878 20.0017 59.2541 20.0083V21.2015C59.2143 21.1916 59.1232 21.1767 58.9807 21.1568C58.8415 21.1336 58.694 21.122 58.5382 21.122C58.167 21.122 57.8355 21.1999 57.5439 21.3556C57.2555 21.5081 57.0268 21.7202 56.8578 21.992C56.6921 22.2605 56.6092 22.5671 56.6092 22.9118V27.7441H55.4359ZM61.8182 23.1504V27.7441H60.6449V20.1078H61.7784V21.301H61.8779C62.0568 20.9132 62.3286 20.6016 62.6932 20.3663C63.0578 20.1277 63.5284 20.0083 64.1051 20.0083C64.6222 20.0083 65.0746 20.1144 65.4624 20.3265C65.8502 20.5353 66.1518 20.8535 66.3672 21.2811C66.5826 21.7053 66.6904 22.2422 66.6904 22.8919V27.7441H65.5171V22.9714C65.5171 22.3715 65.3613 21.9042 65.0497 21.5694C64.7382 21.2314 64.3106 21.0623 63.7671 21.0623C63.3925 21.0623 63.0578 21.1435 62.7628 21.3059C62.4711 21.4683 62.2408 21.7053 62.0718 22.0169C61.9027 22.3284 61.8182 22.7063 61.8182 23.1504ZM71.0815 27.9231C70.5976 27.9231 70.1585 27.832 69.764 27.6497C69.3696 27.4641 69.0564 27.1973 68.8244 26.8493C68.5924 26.4979 68.4764 26.0737 68.4764 25.5765C68.4764 25.139 68.5626 24.7844 68.7349 24.5126C68.9073 24.2375 69.1376 24.0221 69.426 23.8663C69.7143 23.7105 70.0325 23.5945 70.3805 23.5183C70.7319 23.4387 71.0848 23.3758 71.4395 23.3294C71.9035 23.2697 72.2797 23.225 72.568 23.1951C72.8597 23.162 73.0718 23.1073 73.2044 23.0311C73.3403 22.9548 73.4082 22.8223 73.4082 22.6333V22.5936C73.4082 22.103 73.274 21.7219 73.0055 21.4501C72.7404 21.1783 72.3377 21.0424 71.7974 21.0424C71.2373 21.0424 70.7981 21.1651 70.48 21.4103C70.1618 21.6556 69.9381 21.9174 69.8088 22.1958L68.6952 21.7981C68.894 21.3341 69.1592 20.9728 69.4906 20.7143C69.8254 20.4525 70.1899 20.2702 70.5844 20.1674C70.9821 20.0614 71.3732 20.0083 71.7577 20.0083C72.0029 20.0083 72.2846 20.0382 72.6028 20.0978C72.9243 20.1542 73.2342 20.2718 73.5325 20.4508C73.8341 20.6298 74.0844 20.8999 74.2832 21.2612C74.4821 21.6225 74.5815 22.1064 74.5815 22.7129V27.7441H73.4082V26.71H73.3486C73.269 26.8758 73.1364 27.0531 72.9508 27.242C72.7652 27.4309 72.5183 27.5917 72.2101 27.7243C71.9018 27.8568 71.5256 27.9231 71.0815 27.9231ZM71.2605 26.8691C71.7245 26.8691 72.1156 26.778 72.4338 26.5957C72.7553 26.4134 72.9972 26.1781 73.1596 25.8897C73.3254 25.6014 73.4082 25.2981 73.4082 24.9799V23.9061C73.3585 23.9657 73.2491 24.0204 73.0801 24.0701C72.9144 24.1165 72.7221 24.158 72.5034 24.1944C72.288 24.2276 72.0775 24.2574 71.872 24.2839C71.6698 24.3071 71.5058 24.327 71.3798 24.3436C71.0749 24.3833 70.7899 24.448 70.5247 24.5375C70.2629 24.6236 70.0507 24.7546 69.8883 24.9302C69.7292 25.1026 69.6497 25.3379 69.6497 25.6362C69.6497 26.0439 69.8005 26.3521 70.1021 26.5609C70.407 26.7664 70.7932 26.8691 71.2605 26.8691ZM77.8963 17.5623V27.7441H76.723V17.5623H77.8963Z" fill="#E45C2A"/>
</svg>
