<svg width="66" height="66" viewBox="0 0 66 66" fill="none" xmlns="http://www.w3.org/2000/svg">
<path d="M64.4667 32.7333C64.4667 15.2075 50.2592 1 32.7333 1C15.2075 1 1 15.2075 1 32.7333C1 50.2592 15.2075 64.4667 32.7333 64.4667C50.2592 64.4667 64.4667 50.2592 64.4667 32.7333Z" fill="#2C3E50"/>
<path d="M64.4667 32.7333C64.4667 15.2075 50.2592 1 32.7333 1C15.2075 1 1 15.2075 1 32.7333C1 50.2592 15.2075 64.4667 32.7333 64.4667C50.2592 64.4667 64.4667 50.2592 64.4667 32.7333Z" stroke="#D1D5DB" stroke-width="2"/>
<path d="M13.2 31.2245C13.1677 30.9375 13.0343 30.7154 12.8 30.5578C12.5656 30.3981 12.2707 30.3183 11.9151 30.3183C11.6606 30.3183 11.4404 30.3589 11.2545 30.4397C11.0687 30.5183 10.9242 30.6274 10.8212 30.7669C10.7202 30.9042 10.6697 31.0607 10.6697 31.2365C10.6697 31.3839 10.704 31.5114 10.7727 31.6183C10.8434 31.7255 10.9354 31.8154 11.0485 31.8882C11.1636 31.9589 11.2869 32.0183 11.4182 32.0669C11.5495 32.1133 11.6758 32.1517 11.797 32.1821L12.403 32.3397C12.601 32.3882 12.804 32.4538 13.0121 32.5365C13.2202 32.6194 13.4131 32.7285 13.5909 32.8639C13.7687 32.9991 13.9121 33.1669 14.0212 33.3669C14.1323 33.5669 14.1879 33.8063 14.1879 34.085C14.1879 34.4365 14.097 34.7487 13.9151 35.0215C13.7354 35.2941 13.4737 35.5093 13.1303 35.6669C12.7889 35.8245 12.3758 35.9031 11.8909 35.9031C11.4263 35.9031 11.0242 35.8295 10.6848 35.6821C10.3455 35.5346 10.0798 35.3255 9.88786 35.0549C9.69594 34.7821 9.58989 34.4589 9.5697 34.085H10.5091C10.5273 34.3093 10.6 34.4962 10.7273 34.6455C10.8566 34.793 11.0212 34.9031 11.2212 34.9759C11.4232 35.0466 11.6444 35.0821 11.8848 35.0821C12.1495 35.0821 12.3848 35.0407 12.5909 34.9578C12.799 34.873 12.9626 34.7557 13.0818 34.6063C13.201 34.4549 13.2606 34.2781 13.2606 34.0759C13.2606 33.8922 13.2081 33.7415 13.103 33.6245C13 33.5074 12.8596 33.4103 12.6818 33.3335C12.506 33.2567 12.3071 33.189 12.0848 33.1306L11.3515 32.9306C10.8545 32.7951 10.4606 32.5962 10.1697 32.3335C9.8808 32.0709 9.73637 31.7234 9.73637 31.2911C9.73637 30.9335 9.83333 30.6215 10.0273 30.3549C10.2212 30.0882 10.4838 29.881 10.8151 29.7335C11.1464 29.5839 11.5202 29.5093 11.9364 29.5093C12.3566 29.5093 12.7273 29.5831 13.0485 29.7306C13.3717 29.8781 13.6263 30.081 13.8121 30.3397C13.998 30.5962 14.095 30.8911 14.103 31.2245H13.2ZM17.4068 31.1455V31.873H14.8644V31.1455H17.4068ZM15.5462 30.0306H16.4523V34.4335C16.4523 34.6093 16.4785 34.7415 16.5311 34.8306C16.5836 34.9173 16.6512 34.977 16.7341 35.0093C16.8189 35.0397 16.9108 35.0549 17.0098 35.0549C17.0826 35.0549 17.1462 35.0498 17.2007 35.0397C17.2553 35.0295 17.2977 35.0215 17.328 35.0154L17.4917 35.7639C17.4391 35.7839 17.3644 35.8042 17.2674 35.8245C17.1704 35.8466 17.0492 35.8589 16.9038 35.8607C16.6654 35.8647 16.4432 35.8223 16.2371 35.7335C16.0311 35.6447 15.8644 35.5074 15.7371 35.3215C15.6098 35.1357 15.5462 34.9023 15.5462 34.6215V30.0306ZM20.3197 35.8941C19.8833 35.8941 19.5025 35.7941 19.1773 35.5941C18.852 35.3941 18.5995 35.1143 18.4197 34.7549C18.2399 34.3951 18.15 33.9749 18.15 33.4941C18.15 33.0114 18.2399 32.589 18.4197 32.2274C18.5995 31.8658 18.852 31.585 19.1773 31.385C19.5025 31.185 19.8833 31.085 20.3197 31.085C20.756 31.085 21.1369 31.185 21.4621 31.385C21.7874 31.585 22.0399 31.8658 22.2197 32.2274C22.3995 32.589 22.4894 33.0114 22.4894 33.4941C22.4894 33.9749 22.3995 34.3951 22.2197 34.7549C22.0399 35.1143 21.7874 35.3941 21.4621 35.5941C21.1369 35.7941 20.756 35.8941 20.3197 35.8941ZM20.3227 35.1335C20.6055 35.1335 20.8399 35.0589 21.0258 34.9093C21.2116 34.7597 21.349 34.5607 21.4379 34.3122C21.5288 34.0639 21.5742 33.7901 21.5742 33.4911C21.5742 33.1941 21.5288 32.9215 21.4379 32.673C21.349 32.4223 21.2116 32.2215 21.0258 32.0698C20.8399 31.9183 20.6055 31.8426 20.3227 31.8426C20.0379 31.8426 19.8015 31.9183 19.6136 32.0698C19.4278 32.2215 19.2894 32.4223 19.1985 32.673C19.1096 32.9215 19.0651 33.1941 19.0651 33.4911C19.0651 33.7901 19.1096 34.0639 19.1985 34.3122C19.2894 34.5607 19.4278 34.7597 19.6136 34.9093C19.8015 35.0589 20.0379 35.1335 20.3227 35.1335ZM25.4614 35.8941C25.0109 35.8941 24.623 35.7922 24.2977 35.5882C23.9745 35.3821 23.726 35.0981 23.5523 34.7365C23.3785 34.3749 23.2917 33.9607 23.2917 33.4941C23.2917 33.0215 23.3806 32.6042 23.5583 32.2426C23.7361 31.8789 23.9866 31.5951 24.3098 31.3911C24.6331 31.1871 25.0139 31.085 25.4523 31.085C25.8058 31.085 26.121 31.1506 26.3977 31.2821C26.6745 31.4114 26.8977 31.593 27.0674 31.8274C27.2391 32.0618 27.3412 32.3357 27.3735 32.6487H26.4917C26.4432 32.4306 26.3321 32.2426 26.1583 32.085C25.9866 31.9274 25.7563 31.8487 25.4674 31.8487C25.2149 31.8487 24.9937 31.9154 24.8038 32.0487C24.6159 32.1799 24.4694 32.3679 24.3644 32.6122C24.2593 32.8549 24.2068 33.1415 24.2068 33.473C24.2068 33.8122 24.2583 34.1053 24.3614 34.3517C24.4644 34.5981 24.6098 34.789 24.7977 34.9245C24.9876 35.0597 25.2109 35.1274 25.4674 35.1274C25.6391 35.1274 25.7947 35.0962 25.9341 35.0335C26.0755 34.969 26.1937 34.877 26.2886 34.7578C26.3856 34.6386 26.4533 34.4951 26.4917 34.3274H27.3735C27.3412 34.6285 27.2432 34.8973 27.0795 35.1335C26.9159 35.3698 26.6967 35.5557 26.422 35.6911C26.1492 35.8263 25.829 35.8941 25.4614 35.8941ZM29.1757 34.2215L29.1696 33.1154H29.3272L31.1819 31.1455H32.2667L30.1515 33.3882H30.0091L29.1757 34.2215ZM28.3424 35.8002V29.5941H29.2485V35.8002H28.3424ZM31.2819 35.8002L29.6152 33.5882L30.2395 32.9549L32.3939 35.8002H31.2819ZM36.5499 31.2245C36.5176 30.9375 36.3843 30.7154 36.1499 30.5578C35.9157 30.3981 35.6208 30.3183 35.2651 30.3183C35.0107 30.3183 34.7904 30.3589 34.6045 30.4397C34.4187 30.5183 34.2741 30.6274 34.1712 30.7669C34.0701 30.9042 34.0197 31.0607 34.0197 31.2365C34.0197 31.3839 34.0541 31.5114 34.1227 31.6183C34.1933 31.7255 34.2853 31.8154 34.3984 31.8882C34.5136 31.9589 34.6368 32.0183 34.7683 32.0669C34.8995 32.1133 35.0259 32.1517 35.1469 32.1821L35.7531 32.3397C35.9509 32.3882 36.1541 32.4538 36.3621 32.5365C36.5701 32.6194 36.7632 32.7285 36.9408 32.8639C37.1187 32.9991 37.2621 33.1669 37.3712 33.3669C37.4824 33.5669 37.5379 33.8063 37.5379 34.085C37.5379 34.4365 37.4469 34.7487 37.2651 35.0215C37.0853 35.2941 36.8237 35.5093 36.4803 35.6669C36.1389 35.8245 35.7259 35.9031 35.2408 35.9031C34.7763 35.9031 34.3741 35.8295 34.0349 35.6821C33.6955 35.5346 33.4299 35.3255 33.2379 35.0549C33.0459 34.7821 32.94 34.4589 32.9197 34.085H33.8592C33.8773 34.3093 33.9501 34.4962 34.0773 34.6455C34.2067 34.793 34.3712 34.9031 34.5712 34.9759C34.7733 35.0466 34.9944 35.0821 35.2349 35.0821C35.4995 35.0821 35.7349 35.0407 35.9408 34.9578C36.1491 34.873 36.3125 34.7557 36.4317 34.6063C36.5509 34.4549 36.6107 34.2781 36.6107 34.0759C36.6107 33.8922 36.5581 33.7415 36.4531 33.6245C36.3501 33.5074 36.2096 33.4103 36.0317 33.3335C35.856 33.2567 35.6571 33.189 35.4349 33.1306L34.7016 32.9306C34.2045 32.7951 33.8107 32.5962 33.5197 32.3335C33.2309 32.0709 33.0864 31.7234 33.0864 31.2911C33.0864 30.9335 33.1835 30.6215 33.3773 30.3549C33.5712 30.0882 33.8339 29.881 34.1651 29.7335C34.4965 29.5839 34.8701 29.5093 35.2864 29.5093C35.7067 29.5093 36.0773 29.5831 36.3984 29.7306C36.7216 29.8781 36.9763 30.081 37.1621 30.3397C37.348 30.5962 37.4451 30.8911 37.4531 31.2245H36.5499ZM40.5448 35.8941C40.0941 35.8941 39.7064 35.7922 39.3811 35.5882C39.0579 35.3821 38.8093 35.0981 38.6357 34.7365C38.4619 34.3749 38.3749 33.9607 38.3749 33.4941C38.3749 33.0215 38.464 32.6042 38.6416 32.2426C38.8195 31.8789 39.0699 31.5951 39.3931 31.3911C39.7165 31.1871 40.0973 31.085 40.5357 31.085C40.8891 31.085 41.2043 31.1506 41.4811 31.2821C41.7579 31.4114 41.9811 31.593 42.1507 31.8274C42.3224 32.0618 42.4245 32.3357 42.4568 32.6487H41.5749C41.5264 32.4306 41.4155 32.2426 41.2416 32.085C41.0699 31.9274 40.8397 31.8487 40.5507 31.8487C40.2981 31.8487 40.0771 31.9154 39.8872 32.0487C39.6992 32.1799 39.5528 32.3679 39.4477 32.6122C39.3427 32.8549 39.2901 33.1415 39.2901 33.473C39.2901 33.8122 39.3416 34.1053 39.4448 34.3517C39.5477 34.5981 39.6931 34.789 39.8811 34.9245C40.0709 35.0597 40.2941 35.1274 40.5507 35.1274C40.7224 35.1274 40.8781 35.0962 41.0173 35.0335C41.1589 34.969 41.2771 34.877 41.372 34.7578C41.4691 34.6386 41.5365 34.4951 41.5749 34.3274H42.4568C42.4245 34.6285 42.3264 34.8973 42.1629 35.1335C41.9992 35.3698 41.78 35.5557 41.5053 35.6911C41.2325 35.8263 40.9123 35.8941 40.5448 35.8941ZM45.3864 35.8941C44.9501 35.8941 44.5691 35.7941 44.244 35.5941C43.9187 35.3941 43.6661 35.1143 43.4864 34.7549C43.3067 34.3951 43.2165 33.9749 43.2165 33.4941C43.2165 33.0114 43.3067 32.589 43.4864 32.2274C43.6661 31.8658 43.9187 31.585 44.244 31.385C44.5691 31.185 44.9501 31.085 45.3864 31.085C45.8227 31.085 46.2035 31.185 46.5288 31.385C46.8541 31.585 47.1067 31.8658 47.2864 32.2274C47.4661 32.589 47.556 33.0114 47.556 33.4941C47.556 33.9749 47.4661 34.3951 47.2864 34.7549C47.1067 35.1143 46.8541 35.3941 46.5288 35.5941C46.2035 35.7941 45.8227 35.8941 45.3864 35.8941ZM45.3893 35.1335C45.6723 35.1335 45.9067 35.0589 46.0925 34.9093C46.2784 34.7597 46.4157 34.5607 46.5045 34.3122C46.5955 34.0639 46.6408 33.7901 46.6408 33.4911C46.6408 33.1941 46.5955 32.9215 46.5045 32.673C46.4157 32.4223 46.2784 32.2215 46.0925 32.0698C45.9067 31.9183 45.6723 31.8426 45.3893 31.8426C45.1045 31.8426 44.8683 31.9183 44.6803 32.0698C44.4944 32.2215 44.356 32.4223 44.2651 32.673C44.1763 32.9215 44.1317 33.1941 44.1317 33.4911C44.1317 33.7901 44.1763 34.0639 44.2651 34.3122C44.356 34.5607 44.4944 34.7597 44.6803 34.9093C44.8683 35.0589 45.1045 35.1335 45.3893 35.1335ZM51.516 33.8698V31.1455H52.4251V35.8002H51.5341V34.9941H51.4856C51.3787 35.2426 51.2069 35.4498 50.9704 35.6154C50.736 35.7789 50.4443 35.8607 50.0947 35.8607C49.7957 35.8607 49.5309 35.7951 49.3008 35.6639C49.0725 35.5306 48.8928 35.3335 48.7613 35.073C48.632 34.8122 48.5675 34.4901 48.5675 34.1063V31.1455H49.4736V33.9973C49.4736 34.3143 49.5613 34.5669 49.7371 34.7549C49.9128 34.9426 50.1411 35.0365 50.4219 35.0365C50.5917 35.0365 50.7603 34.9941 50.928 34.9093C51.0976 34.8245 51.2381 34.6962 51.3493 34.5245C51.4624 34.3527 51.5179 34.1346 51.516 33.8698ZM55.8152 31.1455V31.873H53.2728V31.1455H55.8152ZM53.9547 30.0306H54.8605V34.4335C54.8605 34.6093 54.8869 34.7415 54.9395 34.8306C54.992 34.9173 55.0595 34.977 55.1424 35.0093C55.2272 35.0397 55.3192 35.0549 55.4181 35.0549C55.4909 35.0549 55.5547 35.0498 55.6091 35.0397C55.6637 35.0295 55.7061 35.0215 55.7363 35.0154L55.9 35.7639C55.8475 35.7839 55.7728 35.8042 55.6757 35.8245C55.5787 35.8466 55.4576 35.8589 55.312 35.8607C55.0739 35.8647 54.8515 35.8223 54.6453 35.7335C54.4395 35.6447 54.2728 35.5074 54.1453 35.3215C54.0181 35.1357 53.9547 34.9023 53.9547 34.6215V30.0306Z" fill="#E3EAF0"/>
</svg>
